#!OML:ASF E:/inclinewalkrobotboard/Project1/Captureday1/Session1/subject1.ASF
:FULLY-SPECIFIED
:DEGREES
13
root 0 0 0 1.2576405101406913 -3.591163545749784 1.8995606914683654
lowerback 12.042965297961665 0.8481584258660306 -0.10758089398321591
upperback -4.4094170982517 1.0652161039284955 -0.6023739555170956
thorax -11.573015607519686 0.48718467420435385 -0.8027385311172395
lowerneck -5.962162226917889 1.728176414859213 4.699931434543368
upperneck 18.393739496073152 3.286943393109957 -8.46862481806984
head 6.731606675529174 1.212660535341766 -3.252932903733151
rclavicle -3.868103959378208E-16 -2.0996120290330753E-15
rhumerus 20.787302769607493 14.829610401934 -47.29453252784119
rradius 72.87550564039385
rwrist 27.418618498401955
rhand -34.55932978976636 -57.65184314931027
rfingers 7.12502000000002
rthumb -7.752682085469264 -87.6070223313701
lclavicle -2.236402215923499E-15 4.300933459691075E-16
lhumerus 21.890720001258963 -13.061114936093253 44.452436174488625
lradius 70.74022561167627
lwrist -22.50052319992467
lhand -45.09545968313812 -70.83709651830782
lfingers 7.125020000000016
lthumb -17.856930421786238 -41.8938608098707
rfemur -25.61468926202754 -2.375817972487133 16.87870940303036
rtibia 54.52908569799228
rfoot -31.33172301831144 -17.850024360621273
rtoes -19.015581325350784
lfemur -27.99458594555798 2.836659416259056 -18.347814362080108
ltibia 54.79782333672375
lfoot -33.210287975730495 -3.536478642654451
ltoes -20.63885662268025
14
root 0 0 0 1.2581882866524086 -3.591660881229941 1.8997736513797867
lowerback 12.042909361126359 0.8482618266071702 -0.10767288616196513
upperback -4.409474049208619 1.065300789795222 -0.6024619862414523
thorax -11.573038339610466 0.48724131764109957 -0.8027442081649927
lowerneck -5.961950833617549 1.7282865818275053 4.699910873481716
upperneck 18.39372730420474 3.287112481831185 -8.468641278238612
head 6.731556384586343 1.2127437654598787 -3.25290411483023
rclavicle -3.7659010910213474E-16 -2.1118606984793845E-15
rhumerus 20.789802132475486 14.833561534230848 -47.29486956102254
rradius 72.87515521032628
rwrist 27.41804145656088
rhand -34.55805559159765 -57.65181124212711
rfingers 7.12502000000002
rthumb -7.751579327256648 -87.6080854541089
lclavicle -2.2009534189835533E-15 4.176051462994429E-16
lhumerus 21.88983874031625 -13.057949311194323 44.4510768746294
lradius 70.73837605814117
lwrist -22.502732738678937
lhand -45.09577922713724 -70.84174991891055
lfingers 7.125020000000016
lthumb -17.857405429029683 -41.89857058008046
rfemur -25.616664931869558 -2.371053475365896 16.876533537057554
rtibia 54.52148587378876
rfoot -31.336934326043156 -17.853758261105796
rtoes -19.029684425047773
lfemur -27.991144171695655 2.833706798456523 -18.34416671162353
ltibia 54.78993575276208
lfoot -33.21757516780421 -3.5333166322985807
ltoes -20.65073841105675
15
root 0 0 0 1.2582386034557667 -3.5918421368895577 1.899654897573324
lowerback 12.042869561994877 0.8482874996879217 -0.10761970748285943
upperback -4.409499755542518 1.0653414636153005 -0.602439081573371
thorax -11.573040706186895 0.48726101131851607 -0.8027596614006014
lowerneck -5.961895075689021 1.7283160296458886 4.699911299764156
upperneck 18.39373923061266 3.2871545152672113 -8.468673994136669
head 6.731548539450978 1.2127583116693503 -3.2529096628934946
rclavicle -3.7662337871376646E-16 -2.1120908604312476E-15
rhumerus 20.789738498890628 14.833351337976419 -47.294655210889715
rradius 72.87520909509726
rwrist 27.418229835486265
rhand -34.55811573154434 -57.65194154695409
rfingers 7.12502000000002
rthumb -7.751616035634351 -87.60827230528527
lclavicle -2.202557207661938E-15 4.1931434061230734E-16
lhumerus 21.890134442812375 -13.058184408286618 44.45090308263664
lradius 70.73869152287186
lwrist -22.502770213274438
lhand -45.095904082483784 -70.84222898786382
lfingers 7.125020000000016
lthumb -17.85750968418253 -41.89915765782712
rfemur -25.61540748605946 -2.3710510118127077 16.876874609516655
rtibia 54.520628426976145
rfoot -31.338442650126996 -17.852970331169978
rtoes -19.033868457908962
lfemur -27.98926133099241 2.832126283599996 -18.342063627659474
ltibia 54.785160226155426
lfoot -33.21836596259629 -3.532415362293311
ltoes -20.657254165229585
16
root 0 0 0 1.2581836445628198 -3.591812541149245 1.8996102015938736
lowerback 12.042794659490962 0.8483002574671971 -0.1076074245773383
upperback -4.409497597055024 1.065357956832961 -0.6024245793599542
thorax -11.572997018449577 0.48726932318648436 -0.8027517170234082
lowerneck -5.96183683371696 1.7283512706108588 4.699972620335767
upperneck 18.393801166565567 3.2872077885108064 -8.468762846476817
head 6.731557215740219 1.212778141335252 -3.2529402194885995
rclavicle -3.7779184309223864E-16 -2.112474239799372E-15
rhumerus 20.78920754411226 14.832611735571993 -47.29414302299118
rradius 72.8748106243961
rwrist 27.41878578870283
rhand -34.55815223545557 -57.6521526641993
rfingers 7.12502000000002
rthumb -7.751659407715033 -87.60841489600452
lclavicle -2.203091144724495E-15 4.191252157518907E-16
lhumerus 21.8900474472688 -13.057910674576707 44.45077642762429
lradius 70.73856751682595
lwrist -22.502931390143978
lhand -45.095926761786515 -70.84257498650771
lfingers 7.125020000000016
lthumb -17.857534571962294 -41.89953134127097
rfemur -25.613865203325055 -2.3712713679156368 16.876728186670345
rtibia 54.52158857706737
rfoot -31.337308118739294 -17.851645171253942
rtoes -19.036065215968325
lfemur -27.987418608787934 2.8319862746320057 -18.342190629777203
ltibia 54.78547977122599
lfoot -33.216643671693696 -3.5341847294158764
ltoes -20.659064757305444
17
root 0 0 0 1.2581408212835412 -3.591774724636369 1.8996064944036708
lowerback 12.042771760853242 0.848303610794888 -0.10761010795885484
upperback -4.409497025261019 1.065361258053605 -0.6024229207613049
thorax -11.57298468918418 0.4872708404655122 -0.8027489214563972
lowerneck -5.961814807058779 1.7283631238871553 4.7000036260703855
upperneck 18.3938209412458 3.287224603075164 -8.46880177762793
head 6.731559157316472 1.21278425558536 -3.252955770030918
rclavicle -3.7798261032147014E-16 -2.1127001296240007E-15
rhumerus 20.78884830538439 14.83207801217773 -47.293764656898844
rradius 72.87453508279323
rwrist 27.419196470611386
rhand -34.558163025602155 -57.65226504362451
rfingers 7.12502000000002
rthumb -7.75167393595596 -87.60851184919733
lclavicle -2.2031938497598348E-15 4.189539615824252E-16
lhumerus 21.889980930733927 -13.057649591363624 44.450650401645206
lradius 70.73843744342854
lwrist -22.503113114196836
lhand -45.09590919552372 -70.84281462375199
lfingers 7.125020000000016
lthumb -17.85751871735108 -41.8997851930548
rfemur -25.61323788309987 -2.371410030945971 16.876629459281553
rtibia 54.522227408152254
rfoot -31.336433051976933 -17.851157021793796
rtoes -19.036412868929744
lfemur -27.98678958194172 2.8321298104142523 -18.34256752413483
ltibia 54.786467589410556
lfoot -33.21585773755034 -3.535175646385012
ltoes -20.659139049166697
18
root 0 0 0 1.2576404469909308 -3.591163634036965 1.8995606063945472
lowerback 12.042965192722045 0.8481584617055287 -0.10758087821282436
upperback -4.409417105564215 1.0652161500120518 -0.602373936356354
thorax -11.573015556684025 0.4871846971623764 -0.8027385266738332
lowerneck -5.962162115608248 1.7281764642094612 4.699931515933915
upperneck 18.393739548955683 3.2869434659637555 -8.468624952714263
head 6.731606670359384 1.2126605617705923 -3.2529329513043566
rclavicle -3.8681058122260647E-16 -2.0996123920186365E-15
rhumerus 20.787302381416637 14.829609779088424 -47.29453200305669
rradius 72.87550534354789
rwrist 27.418619048123233
rhand -34.55932981614927 -57.65184337816337
rfingers 7.12502000000002
rthumb -7.752682115951295 -87.60702257084353
lclavicle -2.2364024161365673E-15 4.300929758050643E-16
lhumerus 21.890719959422782 -13.061114565209683 44.45243593054902
lradius 70.74022547017901
lwrist -22.500523484954613
lhand -45.095459665251425 -70.83709690290465
lfingers 7.125020000000016
lthumb -17.856930405088875 -41.89386124576295
rfemur -25.614686944078393 -2.3758182789876168 16.8787092553066
rtibia 54.52908689939544
rfoot -31.331721553627652 -17.850022908552063
rtoes -19.015584229644723
lfemur -27.994584392935565 2.8366591549798454 -18.347814366840815
ltibia 54.79782329005879
lfoot -33.210286770446864 -3.5364800960733573
ltoes -20.63885858364536
19
root 0 0 0 1.258188238357048 -3.591660868439023 1.8997736416163074
lowerback 12.042909323488773 0.8482618366473864 -0.10767289165945815
upperback -4.40947404805815 1.0653008008695741 -0.602461983641159
thorax -11.573038318716417 0.4872413231206312 -0.8027442037335
lowerneck -5.961950796883993 1.7282865980202191 4.699910914347717
upperneck 18.39372732492144 3.2871125052348162 -8.468641335514468
head 6.731556383850041 1.2127437738702116 -3.2529041371631857
rclavicle -3.7659030940439563E-16 -2.1118609397837987E-15
rhumerus 20.789801770548678 14.833560986656307 -47.29486916209838
rradius 72.87515493155801
rwrist 27.41804188778817
rhand -34.55805560104638 -57.65181136340893
rfingers 7.12502000000002
rthumb -7.75157934148409 -87.60808556456323
lclavicle -2.2009535473811125E-15 4.176049395985216E-16
lhumerus 21.889838656625464 -13.057949003732093 44.4510767293189
lradius 70.73837590092974
lwrist -22.502732948955497
lhand -45.09577920747739 -70.84175019748196
lfingers 7.125020000000016
lthumb -17.857405411316122 -41.898570875239685
rfemur -25.616664047697668 -2.3710536374488047 16.876533392171424
rtibia 54.521486643538665
rfoot -31.336933234847187 -17.8537576612465
rtoes -19.029685045320967
lfemur -27.991143527623148 2.833706957470346 -18.344167143321336
ltibia 54.789936759869505
lfoot -33.21757441175106 -3.533317662421946
ltoes -20.650738443634857
